<svg width="62" height="62" viewBox="0 0 62 62" fill="none" xmlns="http://www.w3.org/2000/svg">
<path d="M29.1352 2.14336C26.2773 2.74883 23.6738 4.9164 22.5961 7.58046C21.7484 9.65117 21.7121 12.1941 22.4992 14.2648C23.3711 16.5414 25.5023 18.6969 27.6457 19.4719L28.2148 19.6777V22.3055V24.9332L24.4973 24.9695C20.9129 25.0059 20.7434 25.018 20.2711 25.2723C19.3266 25.7809 18.6484 26.8344 18.6484 27.8152C18.6484 28.7961 19.3629 29.8738 20.3316 30.3582C20.7191 30.552 21.1793 30.5762 24.4973 30.6125L28.2148 30.6488V42.5281V54.4074L27.4277 54.3227C22.8988 53.8625 18.4426 50.7504 16.3476 46.6211C15.391 44.7078 14.943 43.0367 14.7855 40.6512C14.6887 39.3797 14.6402 39.1617 14.3254 38.6531C13.4293 37.2 11.4676 36.8852 10.1719 37.9871C9.34843 38.6895 9.16679 39.198 9.1789 40.6875C9.26366 46.4395 12.1215 52.1188 16.7715 55.7637C19.7746 58.1129 23.1652 59.5055 26.9434 59.9414C28.348 60.0988 33.6519 60.0988 35.0566 59.9414C38.3746 59.5539 41.1719 58.5367 44.0418 56.6477C46.5727 54.9887 49.3094 51.8887 50.702 49.1156C52.034 46.4637 52.7727 43.509 52.8211 40.6875C52.8332 39.2586 52.7242 38.8953 51.9734 38.1203C50.7746 36.8609 48.607 37.1395 47.6746 38.6531C47.3598 39.1617 47.3113 39.3797 47.2145 40.6512C47.057 43.0004 46.6211 44.6836 45.6887 46.5605C43.5695 50.7988 39.198 53.8504 34.548 54.3227L33.7852 54.4074V42.5281V30.6488L37.5148 30.6125C40.857 30.5762 41.2809 30.552 41.6805 30.3461C42.6371 29.8859 43.3516 28.784 43.3516 27.8152C43.3516 26.8344 42.6734 25.7809 41.7289 25.2723C41.2566 25.018 41.0871 25.0059 37.5148 24.9695L33.7852 24.9332V22.2934V19.6535L34.2453 19.5203C35.0809 19.266 36.5945 18.273 37.4301 17.4254C40.0094 14.8098 40.7723 10.9953 39.4039 7.58046C38.5684 5.47343 36.4492 3.39062 34.318 2.55507C32.768 1.9496 30.7457 1.79218 29.1352 2.14336ZM32.5258 6.91445C33.5551 7.30195 34.3785 8.04062 34.875 9.02148C35.2746 9.79648 35.2988 9.90547 35.2988 11.068C35.2988 12.2305 35.2746 12.3273 34.8871 13.0539C34.0394 14.6039 32.7437 15.3789 31 15.3789C29.2562 15.3789 27.9605 14.6039 27.1129 13.0539C26.7254 12.3273 26.7012 12.2305 26.7012 11.068C26.7012 9.90547 26.7254 9.80859 27.125 9.02148C28.1301 7.05976 30.4672 6.15156 32.5258 6.91445Z" fill="#1A2346"/>
</svg>
