<svg width="62" height="62" viewBox="0 0 62 62" fill="none" xmlns="http://www.w3.org/2000/svg">
<path d="M43.1094 12.727C39.5008 13.9379 39.2465 14.0711 39.0043 14.9672C38.8469 15.5484 38.9195 15.8391 39.6461 17.5586C39.9367 18.2609 40.1668 18.8422 40.1547 18.8664C40.0941 18.927 24.3035 23.0078 24.2672 22.9715C24.2429 22.9594 23.8797 22.1238 23.4558 21.1309L22.6808 19.3145L24.1461 19.2418C25.1633 19.1934 25.7324 19.1086 25.9988 18.9754C27.2461 18.3215 27.2703 16.4445 26.0351 15.8027C25.7445 15.6574 24.9332 15.6211 21.2277 15.6211C17.0621 15.6211 16.7472 15.6332 16.4203 15.8512C15.8875 16.2023 15.6211 16.6988 15.6211 17.3527C15.6211 18.5395 16.2871 19.1207 17.7765 19.2176L18.7211 19.2902L19.9078 22.0633C20.9734 24.5457 21.0824 24.8605 20.925 25.0422C18.8179 27.5125 17.6191 28.8809 17.5707 28.8809C17.5344 28.8809 17.2074 28.7234 16.8562 28.5418C16.5051 28.3602 15.7422 28.0453 15.1609 27.8516C9.68748 26.0352 3.75389 28.5297 1.21092 33.7246C-2.32502 40.9176 2.37342 49.3699 10.3777 50.2539C16.0207 50.8715 21.373 47.0813 22.7535 41.4988L22.9594 40.627L26.35 40.5664C29.1957 40.518 29.789 40.4695 30.0312 40.3121C30.2008 40.2031 32.998 36.4613 36.2554 31.9809C39.525 27.5125 42.2254 23.8918 42.2738 23.9402C42.3949 24.0734 44.3203 28.7355 44.3203 28.893C44.3203 28.9656 44.0176 29.232 43.6543 29.4863C42.734 30.116 41.2082 31.7629 40.6148 32.768C38.9679 35.5652 38.5078 38.6773 39.2949 41.7047C40.7238 47.1781 46.0762 50.8715 51.6707 50.2418C59.6387 49.3578 64.3008 40.8934 60.789 33.7246C59.6629 31.3996 57.8465 29.5953 55.5215 28.457C53.5961 27.5125 52.6273 27.3066 50.375 27.3309C49.3457 27.3551 48.3164 27.3793 48.0984 27.3914L47.6988 27.4277L45.5191 22.2207C44.3324 19.3508 43.3152 16.9047 43.2789 16.7715C43.2304 16.5535 43.4 16.4688 45.0105 15.9359C47.2992 15.1973 47.7715 14.9672 48.0742 14.4828C48.5828 13.6594 48.2922 12.3516 47.5051 11.952C46.7301 11.5523 46.5726 11.5766 43.1094 12.727ZM33.8457 29.1352C31.4601 32.3926 29.5105 35.0688 29.4863 35.093C29.4742 35.1051 28.6265 33.1918 27.6094 30.8184C26.5922 28.4449 25.8051 26.4711 25.8414 26.4227C25.9383 26.3379 38.0597 23.141 38.1203 23.1895C38.1445 23.2137 36.2191 25.8898 33.8457 29.1352ZM24.5699 32.9375L26.2652 36.873L20.9855 36.9094C18.0793 36.9215 15.6816 36.9094 15.6574 36.8852C15.6211 36.8609 17.1953 34.9719 19.1449 32.6953C22.0633 29.3047 22.7172 28.6023 22.7898 28.784C22.8504 28.9051 23.6496 30.7699 24.5699 32.9375ZM13.2355 31.0727C14.289 31.3148 15.173 31.6781 15.0762 31.8355C15.0398 31.9082 13.9137 33.2281 12.5816 34.7781C11.2375 36.3281 10.0387 37.8297 9.90545 38.1203C9.63904 38.7016 9.68748 39.1738 10.0629 39.7914C10.523 40.5422 10.6804 40.5664 15.1972 40.5664H19.266L19.1933 40.8328C18.3578 43.6059 16.166 45.7492 13.4414 46.4516C12.4969 46.6938 10.7289 46.718 9.80858 46.5C8.30701 46.1488 6.44217 45.0227 5.54608 43.9328C3.97186 42.0074 3.31795 39.4766 3.80233 37.1758C4.27459 34.8992 5.93358 32.768 7.99217 31.7387C9.69959 30.9031 11.4797 30.673 13.2355 31.0727ZM52.1308 31.0605C54.3469 31.5207 56.4902 33.1918 57.5074 35.2383C58.1613 36.5824 58.4156 37.757 58.3308 39.1738C58.1613 42.1527 56.4297 44.7199 53.7414 45.943C52.5547 46.4879 51.7433 46.6574 50.4355 46.6574C48.3406 46.6574 46.5726 45.943 45.059 44.502C43.3879 42.9035 42.6008 41.1113 42.5887 38.8711C42.5887 37.3453 42.8066 36.4129 43.4969 35.0809C43.9691 34.1848 45.4344 32.4531 45.7371 32.4531C45.7976 32.4531 46.5242 34.0637 47.3476 36.0254C48.159 37.9992 48.9461 39.743 49.0672 39.9125C49.8058 40.8449 51.3437 40.7602 51.9734 39.743C52.4578 38.9559 52.3609 38.5563 50.7019 34.6328C49.4426 31.6297 49.2367 31.0484 49.3941 30.9758C49.7332 30.8305 51.259 30.8789 52.1308 31.0605Z" fill="#1A2346"/>
</svg>
