<svg width="62" height="62" viewBox="0 0 62 62" fill="none" xmlns="http://www.w3.org/2000/svg">
<path d="M12.9167 31H7.75L31 7.75L54.25 31H49.0833" stroke="#1A2346" stroke-width="5" stroke-linecap="round" stroke-linejoin="round"/>
<path d="M12.9166 31V49.0833C12.9166 50.4536 13.461 51.7678 14.4299 52.7367C15.3988 53.7057 16.713 54.25 18.0833 54.25H43.9166C45.2869 54.25 46.6011 53.7057 47.57 52.7367C48.5389 51.7678 49.0833 50.4536 49.0833 49.0833V31" stroke="#1A2346" stroke-width="5" stroke-linecap="round" stroke-linejoin="round"/>
<path d="M23.25 54.25V38.75C23.25 37.3797 23.7943 36.0656 24.7633 35.0966C25.7322 34.1277 27.0464 33.5833 28.4167 33.5833H33.5833C34.9536 33.5833 36.2678 34.1277 37.2367 35.0966C38.2057 36.0656 38.75 37.3797 38.75 38.75V54.25" stroke="#1A2346" stroke-width="5" stroke-linecap="round" stroke-linejoin="round"/>
</svg>
