<svg width="47" height="47" viewBox="0 0 47 47" fill="none" xmlns="http://www.w3.org/2000/svg">
<path d="M1.24572 18.0416C0.922948 18.3101 0.770952 18.7599 0.752065 19.1773C0.733176 19.5949 0.843954 20.0565 1.14091 20.3534C1.17287 20.3854 1.21592 20.4141 1.24704 20.4341C1.28452 20.4582 1.33192 20.4865 1.38778 20.5186C1.49983 20.5829 1.65435 20.6669 1.84943 20.7698C2.24005 20.976 2.80055 21.2617 3.52489 21.6243C4.97397 22.3495 7.08368 23.3841 9.81236 24.7075C12.1069 25.8203 14.2044 26.8435 15.7353 27.5957C16.5008 27.9718 17.1243 28.2799 17.5597 28.4975C17.7776 28.6063 17.9477 28.6922 18.0648 28.7524C18.1173 28.7794 18.1582 28.8008 18.1876 28.8165C18.2031 28.8455 18.2241 28.8857 18.2506 28.9371C18.3102 29.0528 18.395 29.2209 18.5027 29.4362C18.7178 29.8664 19.0223 30.4824 19.394 31.2387C20.1373 32.7511 21.1483 34.8233 22.2476 37.0899C23.3472 39.357 24.3628 41.4424 25.1133 42.9759C25.4885 43.7427 25.7975 44.3717 26.0177 44.8166C26.1278 45.039 26.2158 45.2158 26.2789 45.3409C26.3104 45.4034 26.336 45.4537 26.3552 45.4905C26.3709 45.5208 26.3896 45.5564 26.4031 45.577C26.7118 46.0482 27.2727 46.2573 27.7891 46.2498C28.3037 46.2423 28.8507 46.0167 29.1068 45.5217L29.1069 45.5216C29.1177 45.5006 29.1429 45.4398 29.1728 45.3673C29.2064 45.2859 29.254 45.1695 29.3148 45.02C29.4365 44.7209 29.6116 44.2884 29.8342 43.7372C30.2794 42.6346 30.9149 41.0564 31.6935 39.1195C33.2509 35.2458 35.3812 29.9369 37.7088 24.1279C41.2785 15.2183 43.3729 9.95492 44.5753 6.80204C45.1763 5.22615 45.5562 4.17322 45.7863 3.45414C46.0137 2.74323 46.1038 2.33303 46.1051 2.05654C46.1067 1.73856 45.9158 1.47941 45.6946 1.31512C45.4723 1.15003 45.1787 1.04813 44.8977 1.06994C44.623 1.09126 44.2041 1.18119 43.4687 1.40599C42.7292 1.63203 41.6551 1.99916 40.0631 2.58382C36.8786 3.75334 31.6095 5.79786 22.7766 9.33686C16.9153 11.6853 11.5698 13.8344 7.6792 15.405C5.73393 16.1903 4.15217 16.831 3.05144 17.2798C2.50115 17.5042 2.0707 17.6807 1.77504 17.8034C1.62733 17.8647 1.51255 17.9129 1.43305 17.9469C1.39348 17.9639 1.36144 17.9779 1.33802 17.9885C1.32653 17.9937 1.31535 17.9989 1.30572 18.0036C1.30105 18.0059 1.29475 18.0091 1.28808 18.0128L1.28779 18.013C1.28491 18.0146 1.26556 18.0251 1.24572 18.0416ZM1.24572 18.0416L1.40561 18.2338L1.24563 18.0417C1.24566 18.0417 1.24569 18.0416 1.24572 18.0416ZM6.39119 19.4141C6.62601 19.3189 6.94042 19.1918 7.32462 19.0368C8.22835 18.6723 9.51763 18.1535 11.0642 17.5319C14.1573 16.2887 18.2791 14.6344 22.4032 12.9806C26.5273 11.3268 30.6535 9.67361 33.7552 8.43264C35.3061 7.81215 36.6008 7.29476 37.511 6.93189C37.6356 6.88221 37.753 6.83543 37.8629 6.79168C37.3689 7.28968 36.6708 7.99136 35.8159 8.84928C34.0309 10.6405 31.5628 13.1123 28.8424 15.8325L19.0755 25.5982L12.5544 22.4384L12.4453 22.6634L12.5544 22.4384C10.7174 21.5483 9.05215 20.7346 7.84918 20.1407C7.24757 19.8437 6.76215 19.6019 6.42881 19.4331C6.41604 19.4267 6.4035 19.4203 6.39119 19.4141ZM38.1255 11.2143C38.9835 10.3575 39.686 9.65641 40.1856 9.15844C40.1615 9.21903 40.1365 9.28193 40.1105 9.34709C39.7774 10.1845 39.2947 11.3956 38.6984 12.8902C37.5058 15.8795 35.8591 20.0026 34.046 24.538C32.2329 29.0735 30.5786 33.2032 29.3741 36.2031C28.7718 37.7031 28.2819 38.9205 27.9409 39.7649C27.8015 40.1101 27.687 40.3927 27.5998 40.6068C27.5927 40.593 27.5855 40.5789 27.5781 40.5645C27.4081 40.2338 27.1652 39.7507 26.8672 39.1508C26.2712 37.9513 25.4562 36.2881 24.5661 34.451L21.406 27.9285L31.1507 18.1846C33.865 15.4705 36.3341 13.0031 38.1255 11.2143Z" fill="#1A2346" stroke="#1A2346" stroke-width="0.5"/>
</svg>
