<svg width="62" height="62" viewBox="0 0 62 62" fill="none" xmlns="http://www.w3.org/2000/svg">
<path d="M42.1905 53C40.8328 51.5663 40 49.6304 40 47.5C40 43.0817 43.5817 39.5 48 39.5C52.4183 39.5 56 43.0817 56 47.5C56 51.9183 52.4183 55.5 48 55.5C45.7121 55.5 43.6486 54.5396 42.1905 53ZM42.1905 53L18 8M21.8095 53C23.1672 51.5663 24 49.6304 24 47.5C24 43.0817 20.4183 39.5 16 39.5C11.5817 39.5 8 43.0817 8 47.5C8 51.9183 11.5817 55.5 16 55.5C18.2879 55.5 20.3514 54.5396 21.8095 53ZM21.8095 53L46 8" stroke="#1A2346" stroke-width="5" stroke-linecap="round"/>
</svg>
