<svg width="47" height="47" viewBox="0 0 47 47" fill="none" xmlns="http://www.w3.org/2000/svg">
<path d="M17.0187 33.0593L17.2376 32.9386C17.3077 33.0657 17.363 33.1652 17.4082 33.2427C17.4405 33.1896 17.4795 33.1248 17.525 33.0483C17.648 32.8421 17.8111 32.5644 18.0006 32.2394C18.3793 31.5895 18.8623 30.7522 19.338 29.9221C19.8138 29.0919 20.2819 28.2695 20.6309 27.6493C20.8055 27.3391 20.95 27.0802 21.0506 26.8965C21.0913 26.822 21.1245 26.7607 21.1493 26.7138C21.1292 26.6771 21.1038 26.6312 21.0732 26.5763C20.9837 26.4159 20.8514 26.182 20.6806 25.8821C20.3393 25.2824 19.8455 24.421 19.2359 23.3615C18.0169 21.2425 16.3357 18.332 14.4873 15.1401L7.76206 3.53251L7.72838 3.47438V3.40718V2.73008C7.72838 2.43205 7.73105 2.22238 7.77751 2.04797C7.82816 1.85785 7.92585 1.72421 8.05466 1.56435C8.2224 1.34591 8.55003 1.08895 8.78368 0.962524L8.78361 0.962406L8.79094 0.958744C9.53769 0.585754 10.4178 0.71833 11.0306 1.31039C11.0541 1.33307 11.0731 1.35981 11.0801 1.36957C11.0924 1.38661 11.1065 1.40745 11.122 1.43083C11.153 1.47791 11.1939 1.54223 11.2434 1.62188C11.3427 1.78155 11.4805 2.00839 11.6519 2.29427C11.995 2.8663 12.4752 3.6783 13.0574 4.67001C14.222 6.6536 15.7957 9.35815 17.4992 12.3043C19.2025 15.2501 20.7539 17.9298 21.8827 19.873C22.4471 20.8446 22.9057 21.6318 23.2248 22.176C23.3402 22.3727 23.4371 22.5374 23.5142 22.6675C23.5902 22.5389 23.6856 22.3767 23.7989 22.1832C24.1139 21.6456 24.5665 20.8688 25.1232 19.9104C26.2366 17.9936 27.7659 15.3513 29.4428 12.4452C32.7948 6.63565 35.6233 1.75027 35.7223 1.58835L35.7223 1.58833L35.7244 1.58505C35.8962 1.31377 36.1988 1.09575 36.5166 0.953197C36.8366 0.809628 37.2082 0.726223 37.5434 0.757614L37.5439 0.757668C38.8024 0.878361 39.6799 2.24521 39.2418 3.41568L39.2419 3.4157L39.2398 3.42097C39.2293 3.44716 39.2039 3.49354 39.1825 3.53268C39.1557 3.58159 39.1179 3.6495 39.0698 3.73501C38.9737 3.9062 38.8354 4.15022 38.6598 4.45874C38.3085 5.07589 37.8068 5.95251 37.1922 7.02376C35.963 9.16632 34.2816 12.0882 32.4462 15.2715L32.4461 15.2717L25.8283 26.728L27.7633 30.0853L27.7635 30.0857C28.3134 31.0438 28.817 31.9137 29.1862 32.5438C29.3546 32.8311 29.4946 33.068 29.5983 33.2404C29.6711 33.1222 29.7571 32.9775 29.8475 32.8203L29.8482 32.8191C31.0335 30.7854 32.7485 29.4353 35.0173 28.74L35.0193 28.7394C35.3923 28.6285 35.6351 28.5635 35.9706 28.5292C36.2973 28.4957 36.7096 28.4916 37.4232 28.4916C38.1292 28.4916 38.5432 28.498 38.8711 28.5326C39.207 28.568 39.4492 28.6327 39.8093 28.7393L39.8115 28.74C42.967 29.7065 45.268 32.1308 46.0462 35.3126C46.1626 35.7828 46.2292 36.485 46.2458 37.1664C46.2625 37.8471 46.2301 38.5385 46.136 38.985L46.1358 38.986C45.377 42.5144 42.8698 45.1492 39.456 46.0085V46.0085L39.4551 46.0087C38.8781 46.1517 38.1034 46.2205 37.348 46.2194C36.594 46.2183 35.8346 46.1475 35.2895 45.9986C34.4714 45.7806 33.2932 45.242 32.6434 44.7943C31.9379 44.3179 30.8607 43.232 30.3693 42.5229L30.3676 42.5205C30.1234 42.159 28.4624 39.3341 26.6876 36.2444C25.7941 34.6969 24.9734 33.2792 24.3696 32.2407C24.0676 31.7215 23.82 31.2973 23.6447 30.9993C23.6006 30.9244 23.5612 30.8577 23.5267 30.7994C23.46 30.8969 23.3762 31.0263 23.2727 31.1921C22.9552 31.7011 22.4687 32.5286 21.7601 33.764L21.7599 33.7644L21.5521 34.1255C18.9246 38.6909 17.604 40.9854 16.7914 42.2568C16.3738 42.9103 16.0837 43.3042 15.8135 43.6007C15.5556 43.8836 15.3201 44.0726 15.0295 44.3059C15.0144 44.3181 14.999 44.3304 14.9835 44.3428C14.1286 45.0332 12.7496 45.7267 11.7107 45.9908V45.9908L11.7101 45.9909C7.06868 47.1591 2.23322 44.2633 1.04617 39.611C-0.175822 34.8541 2.48032 30.1852 7.21013 28.7487C7.57436 28.6377 7.81915 28.5705 8.15115 28.5338C8.47537 28.4979 8.879 28.4916 9.56285 28.4916C10.8424 28.4916 11.1972 28.5174 11.8307 28.6943C14.1473 29.3362 16.0955 30.8559 17.2379 32.9391L17.0187 33.0593ZM17.0187 33.0593C15.9096 31.0367 14.017 29.5594 11.7635 28.9351L17.3024 33.4111C17.2938 33.4221 17.2903 33.4259 17.2903 33.4259C17.2903 33.4259 17.2905 33.4257 17.2909 33.4254L17.2909 33.4253C17.2918 33.4245 17.296 33.4204 17.3037 33.4151L17.5028 33.5605M17.0187 33.0593C17.3532 33.666 17.3884 33.71 17.5028 33.5605M17.5028 33.5605C17.7405 33.2352 21.4288 26.7982 21.4288 26.7103C21.4288 26.6575 18.4007 21.3989 14.7036 15.0148M17.5028 33.5605L17.3086 33.4118L14.7036 15.0148M14.7036 15.0148L7.97838 3.40718V2.73008C7.97838 2.11452 7.99598 2.03538 8.25126 1.71881C8.3921 1.53414 8.69139 1.29671 8.90265 1.1824L14.7036 15.0148ZM10.8027 32.5801L10.8026 32.5801C10.5298 32.509 10.0707 32.4695 9.59859 32.4684C9.12641 32.4673 8.68068 32.5048 8.43125 32.5707C5.81235 33.301 4.25915 35.9303 4.91958 38.5109L4.91964 38.5111C5.15506 39.4351 5.52862 40.0987 6.21848 40.7879L6.21922 40.7886C8.22488 42.809 11.4464 42.6799 13.1251 40.5463L13.1254 40.5459C13.6314 39.9057 14.1068 38.9117 14.2656 38.1945C14.7742 35.8013 13.1724 33.197 10.8027 32.5801ZM38.5501 32.5805L38.5495 32.5804C38.2532 32.5044 37.8106 32.4651 37.3562 32.4673C36.902 32.4694 36.4637 32.5128 36.1757 32.5886C35.4667 32.7782 34.7558 33.2016 34.1574 33.7908C33.2221 34.7254 32.7571 35.7324 32.6817 37.0135L32.6816 37.0144C32.6232 37.9479 32.7599 38.5636 33.2629 39.5686C34.1795 41.3916 35.8818 42.3771 37.8066 42.2106L37.8078 42.2105C40.8743 41.9601 42.948 38.8328 42.026 35.8596C41.5324 34.2894 40.1648 32.99 38.5501 32.5805Z" fill="#1A2346" stroke="#1A2346" stroke-width="0.5"/>
</svg>
