<svg width="62" height="60" viewBox="0 0 62 60" fill="none" xmlns="http://www.w3.org/2000/svg">
<path fill-rule="evenodd" clip-rule="evenodd" d="M29.241 0.228278C26.608 0.966948 26.1615 1.55793 22.3083 9.40543C20.5508 12.9845 19.0872 15.9126 19.0557 15.9126C18.4306 15.9126 4.65494 18.0571 4.17087 18.2299C1.39293 19.2207 -0.425941 22.3513 0.0863496 25.2597C0.46722 27.4217 0.604819 27.5966 6.4217 33.3072L11.764 38.5516L10.5843 45.4341C9.02064 54.5554 9.07049 55.4729 11.2459 57.6454C12.6598 59.0574 13.6547 59.4435 15.8802 59.4435H17.7308L19.0988 58.7429C19.851 58.3575 22.7907 56.8186 25.6315 55.3231C28.472 53.8276 30.8913 52.6041 31.0073 52.6041C31.1233 52.6041 33.5426 53.8276 36.3832 55.3231C39.224 56.8186 42.1636 58.3575 42.9161 58.7429L44.2838 59.4435H46.1346C48.3599 59.4435 49.3548 59.0574 50.7687 57.6454C52.945 55.472 52.9952 54.5467 51.4328 45.426L50.2548 38.5493L55.5872 33.3059C61.3542 27.6353 61.5602 27.3774 61.9067 25.388C62.4352 22.3526 60.6701 19.2421 57.8438 18.2285C57.4666 18.0932 54.2252 17.5535 50.6406 17.0292C47.0558 16.505 43.8469 16.032 43.5097 15.9785L42.8965 15.8811L39.6343 9.25856C36.4423 2.77819 36.351 2.6165 35.385 1.72436C33.756 0.219832 31.3554 -0.36476 29.241 0.228278ZM31.3491 5.78479C31.5491 5.8919 32.9698 8.59919 35.1252 12.9814C38.5609 19.9654 38.9071 20.5691 39.72 20.9922C39.9538 21.1137 43.6325 21.7218 47.895 22.3433C52.1575 22.965 55.7864 23.5489 55.959 23.6414C56.825 24.1049 56.5769 24.41 50.6808 30.1337C45.1409 35.5117 44.3644 36.3976 44.3644 37.34C44.3644 37.5911 44.9436 41.1648 45.6518 45.2818C47.0245 53.2636 47.0424 53.4021 46.746 53.6985C46.3589 54.0855 45.7838 53.8289 38.978 50.2321L32.0533 46.5728L31.0073 46.5752L29.9613 46.5775L23.0414 50.2336C16.2452 53.8243 15.6567 54.0866 15.2686 53.6985C14.9722 53.4021 14.9902 53.2636 16.3629 45.2818C17.071 41.1648 17.6503 37.6024 17.6503 37.3655C17.6503 36.3679 17.0031 35.6256 11.3726 30.1679C5.43522 24.4124 5.18619 24.1067 6.05319 23.6427C6.22457 23.551 9.8485 22.9693 14.1063 22.3503C18.3642 21.7311 22.044 21.1226 22.2838 20.9978C23.1094 20.5681 23.447 19.9812 26.8929 12.9814C30.4563 5.74338 30.6592 5.41566 31.3491 5.78479Z" fill="#1A2346"/>
</svg>
